<?xml version="1.0" standalone="no"?>
<!DOCTYPE svg PUBLIC "-//W3C//DTD SVG 20010904//EN"
 "http://www.w3.org/TR/2001/REC-SVG-20010904/DTD/svg10.dtd">
<svg version="1.0" xmlns="http://www.w3.org/2000/svg"
 width="596.000000pt" height="596.000000pt" viewBox="0 0 596.000000 596.000000"
 preserveAspectRatio="xMidYMid meet">
<metadata>
Created by potrace 1.16, written by Peter Selinger 2001-2019
</metadata>
<g transform="translate(0.000000,596.000000) scale(0.100000,-0.100000)"
fill="#000000" stroke="none">
<path d="M2890 5291 c-25 -11 -90 -42 -144 -70 -112 -58 -136 -61 -241 -31
-152 43 -205 24 -354 -129 -60 -62 -117 -112 -131 -115 -14 -3 -72 -13 -128
-21 -195 -28 -209 -38 -306 -225 -32 -61 -69 -121 -83 -134 -14 -13 -81 -54
-150 -92 -69 -37 -135 -81 -148 -96 -27 -32 -42 -94 -54 -226 l-8 -92 -126
-129 c-158 -162 -157 -160 -126 -336 13 -72 23 -143 22 -160 0 -18 -33 -90
-79 -175 -62 -113 -79 -154 -79 -185 0 -29 20 -80 68 -182 l68 -143 -25 -136
c-14 -76 -26 -155 -26 -176 0 -75 53 -162 125 -204 l42 -24 68 -241 c65 -230
68 -244 56 -288 -6 -25 -47 -158 -90 -296 l-77 -250 542 -3 542 -2 47 -64 c48
-66 113 -127 176 -165 42 -26 89 -26 199 -1 47 11 112 20 144 20 54 0 69 -5
155 -54 99 -56 181 -86 236 -86 45 0 130 31 214 79 124 70 146 74 258 51 123
-26 188 -25 260 1 65 25 129 84 188 172 l38 57 658 0 c363 0 659 2 659 4 0 3
-47 128 -105 279 -58 151 -105 283 -105 293 0 15 86 309 166 567 5 15 -2 17
-45 17 l-50 0 19 33 c33 56 34 111 6 217 -15 52 -34 123 -42 157 l-16 61 72
144 c39 78 74 162 77 185 9 66 -14 134 -82 249 -47 78 -63 114 -60 133 12 70
25 212 25 266 -1 86 -24 126 -135 235 -53 52 -105 111 -115 131 -11 20 -26 79
-34 130 -30 184 -62 234 -188 291 -197 90 -187 82 -249 197 -73 135 -116 192
-161 214 -25 12 -77 21 -170 27 -73 5 -134 9 -136 10 -2 0 -55 50 -119 111
-116 111 -158 139 -210 139 -15 0 -75 -11 -133 -25 -155 -36 -166 -35 -308 37
-105 53 -131 63 -185 65 -44 2 -75 -3 -107 -16z m445 -375 c516 -86 964 -381
1249 -824 203 -314 309 -706 293 -1086 -9 -222 -45 -389 -128 -603 l-40 -102
-352 -3 c-194 -2 -353 -3 -353 -3 -1 0 -7 86 -13 190 -14 231 -13 229 -136
245 -129 18 -126 17 -115 45 14 37 78 345 81 390 2 22 -1 47 -5 54 -14 22 -93
52 -185 71 -98 20 -99 22 -59 115 19 43 22 69 22 190 l1 140 -59 23 c-32 13
-102 33 -155 44 -53 11 -101 21 -107 23 -7 2 -8 19 -5 46 l6 44 45 -3 c25 -2
53 -5 63 -8 12 -4 17 0 17 15 0 13 12 26 30 36 40 21 38 41 -5 55 -28 9 -35
17 -35 37 0 16 -7 27 -20 30 -16 4 -20 14 -20 49 0 48 -11 54 -47 29 -12 -8
-28 -12 -37 -9 -10 4 -21 -7 -36 -35 -11 -23 -24 -41 -28 -41 -4 0 -18 9 -32
20 -49 39 -115 16 -217 -75 -68 -61 -109 -131 -99 -170 6 -22 2 -25 -36 -35
-84 -22 -174 -53 -212 -74 l-39 -21 6 -95 c3 -58 13 -120 27 -159 12 -35 24
-86 27 -112 5 -46 5 -48 -23 -54 -114 -25 -228 -69 -251 -97 -9 -10 2 -69 41
-233 60 -251 66 -226 -58 -246 -54 -8 -87 -19 -104 -34 -27 -24 -27 -18 -41
-388 -1 -16 -27 -17 -443 -15 l-443 3 -42 105 c-188 469 -160 1037 74 1504
290 578 845 963 1493 1035 112 13 392 5 505 -13z m-165 -848 c46 -33 80 -101
80 -164 l0 -51 -37 -7 c-21 -3 -107 -6 -190 -6 l-153 0 0 24 c0 26 62 113 113
160 37 33 103 65 133 66 12 0 36 -10 54 -22z m-132 -444 c43 -75 71 -104 98
-104 20 0 29 9 45 48 51 123 67 128 91 28 46 -191 87 -210 164 -79 13 24 31
43 38 43 22 0 46 -87 46 -163 l0 -70 -52 7 c-29 4 -100 14 -158 22 -58 7 -140
14 -182 14 -84 0 -270 -22 -387 -45 -60 -12 -76 -13 -83 -3 -12 20 -10 52 7
85 8 16 21 62 29 102 7 40 20 80 29 89 15 14 18 14 36 -2 11 -11 25 -43 31
-75 17 -87 30 -120 50 -131 43 -23 93 63 115 200 15 93 41 104 83 34z m212
-304 c219 -17 413 -56 502 -101 l41 -21 -6 -66 c-3 -37 -11 -81 -17 -98 l-11
-31 -91 23 c-49 13 -142 31 -205 39 -134 18 -477 20 -621 4 -92 -9 -369 -61
-405 -74 -15 -6 -27 22 -64 158 -12 45 308 144 537 166 124 12 189 12 340 1z
m340 -394 c68 -9 128 -20 132 -24 9 -9 0 -113 -12 -132 -5 -8 -55 -7 -206 6
-274 23 -530 22 -798 -4 -121 -12 -223 -19 -227 -15 -4 5 -14 32 -23 62 -12
42 -13 57 -4 62 17 11 166 37 278 49 52 5 111 12 130 14 85 10 612 -3 730 -18z
m-146 -322 c14 -5 16 -29 16 -160 l0 -154 -80 0 -80 0 0 114 c0 101 2 117 23
147 33 49 79 69 121 53z m-432 -50 c18 -25 48 -65 66 -90 26 -36 32 -54 32
-93 0 -80 -1 -81 -91 -81 l-79 0 0 155 c0 148 1 155 20 155 12 0 32 -18 52
-46z m-92 -91 c0 -181 4 -173 -91 -173 l-79 0 0 48 c0 41 4 50 33 74 19 14 46
53 61 85 29 60 53 93 68 93 4 0 8 -57 8 -127z m1001 44 c7 -23 18 -49 26 -58
8 -10 13 -42 13 -87 l0 -72 -45 0 -45 0 0 140 c0 137 1 140 20 130 10 -6 25
-29 31 -53z m-1381 -82 l0 -135 -85 0 -85 0 0 50 c0 46 5 56 66 135 42 55 72
85 85 85 18 0 19 -8 19 -135z m1300 0 l0 -135 -80 0 -80 0 0 50 c0 40 6 58 33
94 17 25 44 63 59 85 17 25 36 41 48 41 19 0 20 -6 20 -135z m-307 65 c31 -63
59 -90 93 -90 22 0 24 -4 24 -55 l0 -55 -80 0 -80 0 0 78 c0 42 -3 101 -7 131
-8 70 11 67 50 -9z m-912 -40 c23 -27 55 -55 70 -62 25 -11 29 -18 29 -55 l0
-43 -80 0 -80 0 0 105 c0 59 4 105 9 105 6 0 29 -22 52 -50z m649 -80 l0 -80
-70 0 -70 0 0 59 0 58 39 6 c21 2 52 12 67 20 16 8 30 15 32 16 1 1 2 -35 2
-79z m1734 -246 c9 -8 16 -20 16 -26 0 -6 -34 -93 -75 -193 l-75 -183 81 -178
c44 -99 83 -189 86 -202 12 -51 7 -52 -357 -52 -361 0 -370 1 -355 50 6 20 13
20 316 20 170 0 309 1 309 3 0 1 -34 83 -74 181 l-74 179 40 115 c21 64 50
142 63 174 l23 58 -306 2 c-286 3 -307 4 -310 21 -9 46 0 47 349 47 284 0 330
-2 343 -16z m-2569 -6 c22 -6 46 -11 53 -9 8 1 12 -13 12 -47 l0 -49 -44 43
c-33 34 -51 44 -75 44 -84 0 -129 -140 -78 -240 38 -76 96 -87 159 -29 17 16
32 28 33 27 2 -2 1 -16 -2 -32 -11 -54 -126 -75 -209 -37 -66 30 -89 72 -89
161 0 63 4 80 24 109 44 61 129 85 216 59z m788 1 c118 -32 165 -174 90 -267
-42 -51 -83 -73 -152 -79 -129 -12 -221 62 -221 178 0 125 140 208 283 168z
m-1323 -14 c7 -8 10 -22 6 -30 -5 -13 -48 -15 -317 -15 -292 0 -311 -1 -304
-17 4 -10 34 -89 67 -176 l60 -158 -71 -177 c-39 -98 -71 -181 -71 -184 0 -3
134 -3 298 0 264 4 299 3 310 -11 8 -9 12 -24 10 -34 -3 -16 -18 -19 -123 -24
-197 -10 -522 -10 -549 1 -15 5 -26 17 -26 27 0 10 34 103 75 208 l76 189 -52
151 c-29 82 -59 170 -67 194 -25 72 -29 71 344 71 272 0 323 -2 334 -15z m766
-7 c-10 -14 -16 -44 -16 -75 l0 -53 70 0 70 0 0 63 c0 36 -5 68 -12 75 -9 9 3
12 55 12 65 0 67 -1 57 -20 -7 -13 -10 -76 -8 -170 l3 -150 -63 0 c-58 0 -62
1 -48 16 11 11 16 35 16 80 l0 64 -70 0 -70 0 0 -61 c0 -33 5 -69 10 -80 10
-18 7 -19 -57 -19 -52 0 -64 3 -55 12 8 8 12 58 12 158 0 100 -4 150 -12 158
-9 9 4 12 61 12 l72 0 -15 -22z m846 10 c-8 -8 -12 -53 -12 -135 0 -120 1
-125 26 -150 21 -21 32 -24 62 -19 62 9 72 31 72 164 0 93 -3 119 -17 134 -15
17 -14 18 41 18 l57 0 -20 -26 c-18 -23 -21 -41 -21 -133 0 -64 -5 -116 -13
-131 -35 -70 -187 -81 -254 -18 -21 20 -23 29 -23 132 0 61 -4 126 -9 144
l-10 32 67 0 c51 0 63 -3 54 -12z m417 -7 c-10 -15 -7 -24 16 -55 15 -20 31
-36 36 -36 5 0 17 16 26 36 14 28 15 39 5 55 -12 18 -9 19 50 19 l62 0 -40
-42 c-22 -24 -50 -55 -63 -70 l-24 -28 37 -55 c21 -30 56 -75 78 -100 l40 -45
-75 0 c-67 0 -75 2 -71 18 5 17 -63 121 -79 122 -8 0 -67 -89 -67 -101 0 -4 7
-15 16 -23 14 -15 9 -16 -53 -16 l-68 1 31 27 c18 15 53 53 78 85 l47 59 -37
51 c-21 29 -51 67 -68 85 l-30 32 82 0 c78 0 82 -1 71 -19z m-1518 -437 c20
-24 13 -90 -15 -141 -26 -46 -34 -114 -17 -141 10 -17 21 -3 49 59 19 44 22
46 68 52 27 3 53 3 57 0 5 -3 6 -27 2 -53 -8 -57 10 -79 21 -25 9 51 28 45 20
-7 -11 -70 -49 -93 -82 -50 -9 13 -12 13 -17 -2 -8 -20 -56 -21 -63 -2 -5 12
-9 11 -25 -5 -25 -25 -41 -24 -65 2 -16 18 -19 36 -17 128 1 107 18 175 46
193 17 11 23 10 38 -8z m1007 4 c20 -20 14 -91 -13 -144 -26 -50 -34 -137 -15
-149 5 -3 22 19 37 49 28 58 58 80 86 64 24 -13 21 -45 -8 -72 -30 -28 -31
-36 -6 -36 24 0 42 22 50 63 6 26 12 32 32 32 14 0 33 6 43 14 15 12 19 12 31
0 8 -8 16 -25 17 -39 2 -19 -2 -26 -19 -28 -18 -3 -23 1 -23 20 0 36 -18 2
-26 -50 -7 -48 -28 -64 -48 -37 -11 15 -13 15 -25 1 -17 -20 -65 -21 -81 -1
-12 14 -15 13 -35 -5 -28 -26 -39 -25 -63 5 -19 24 -20 24 -37 5 -22 -25 -71
-26 -84 -3 -8 16 -12 15 -31 -10 -37 -47 -76 -31 -87 37 -8 52 -33 30 -26 -23
5 -34 2 -41 -21 -56 -22 -15 -29 -15 -42 -4 -12 10 -15 24 -10 59 l6 45 -17
-34 c-22 -43 -36 -48 -62 -22 -16 16 -21 17 -25 5 -7 -17 -52 -19 -62 -2 -4 7
-11 28 -14 48 l-7 35 -22 -49 c-20 -44 -24 -48 -51 -44 -27 4 -30 2 -31 -21
-3 -82 -4 -86 -24 -86 -23 0 -33 43 -34 136 -1 83 8 119 30 119 14 0 19 -7 19
-27 l1 -28 14 26 c8 15 22 29 30 33 21 8 55 -10 55 -29 0 -21 19 -19 38 4 20
23 111 38 113 18 0 -6 0 -33 -1 -59 -2 -57 16 -64 25 -10 11 59 14 66 36 80
16 10 24 10 35 1 16 -13 19 -49 4 -49 -5 0 -10 7 -10 15 0 8 -5 15 -11 15 -13
0 -8 -52 6 -57 24 -7 55 37 55 78 0 39 -1 40 -32 37 -18 -2 -33 2 -35 9 -3 7
10 13 34 15 31 2 39 7 41 26 3 17 9 22 25 20 15 -2 21 -9 19 -20 -2 -13 4 -18
23 -18 32 0 33 -18 0 -26 -24 -6 -25 -9 -25 -91 0 -97 11 -105 47 -31 20 41
55 78 75 78 3 0 13 -7 21 -15 20 -19 11 -50 -20 -75 -22 -17 -23 -21 -9 -26
30 -11 56 24 56 75 0 25 5 75 11 111 15 94 44 131 77 98z m318 -153 c1 -17 2
-55 3 -85 1 -40 4 -51 11 -40 5 8 10 25 10 36 0 37 31 62 80 66 l45 3 3 -57
c3 -65 16 -76 26 -23 4 19 12 35 17 35 7 0 8 -13 4 -32 -12 -58 -16 -68 -35
-78 -15 -8 -24 -6 -39 9 -17 17 -21 18 -32 5 -13 -16 -45 -19 -54 -4 -4 6 -12
4 -22 -5 -13 -14 -18 -14 -37 -2 -16 11 -22 26 -24 67 -2 29 0 60 4 69 4 9 6
29 5 44 -2 23 1 28 16 25 12 -2 18 -13 19 -33z"/>
<path d="M3085 2074 c-53 -57 -52 -191 1 -249 25 -27 70 -33 106 -14 28 15 58
86 58 139 0 53 -30 124 -58 139 -36 19 -81 13 -107 -15z"/>
</g>
</svg>
